<svg viewBox="0 0 291 63" fill="none" xmlns="http://www.w3.org/2000/svg">
    <path d="M49.84 53.48C44.8 59.72 37.28 62.84 27.28 62.84C19.6 62.84 13.28 60.08 8.32 54.56C3.12 48.72 0.52 41.04 0.52 31.52C0.52 22.24 2.96 14.76 7.84 9.08001C12.96 3.24001 20.08 0.320007 29.2 0.320007C33.76 0.320007 39.76 1.76001 47.2 4.64001V20.48H42.4C41.28 20.48 40.6 19.92 40.36 18.8C40.28 18.56 40.12 17.04 39.88 14.24L39.52 10.28C38.64 9.96 37.76 9.72 36.88 9.56001C36.08 9.40001 35.52 9.28 35.2 9.2C33.04 8.88 30.8 8.72 28.48 8.72C26.4 8.72 24.2 9.24 21.88 10.28C19.72 11.24 17.84 12.72 16.24 14.72C13.2 18.72 11.68 24.32 11.68 31.52C11.68 38.72 13.28 44.4 16.48 48.56C19.6 52.56 23.88 54.56 29.32 54.56C34.36 54.56 38.8 52.88 42.64 49.52C43.28 48.88 44.08 48.56 45.04 48.56C45.92 48.56 46.56 48.88 46.96 49.52L49.84 53.48Z" fill="#ffffff"/>
    <path d="M60.055 55.52C60.055 54.64 60.255 53.68 60.655 52.64C60.975 51.76 61.495 50.96 62.215 50.24C62.855 49.6 63.655 49.04 64.615 48.56C65.255 48.24 66.215 48.08 67.495 48.08C68.775 48.08 69.735 48.24 70.375 48.56C71.175 48.96 71.935 49.52 72.655 50.24C73.375 50.96 73.895 51.76 74.215 52.64C74.535 53.52 74.695 54.48 74.695 55.52C74.695 56.56 74.535 57.52 74.215 58.4C73.895 59.28 73.375 60.08 72.655 60.8C72.015 61.44 71.255 61.92 70.375 62.24C69.335 62.64 68.375 62.84 67.495 62.84C66.615 62.84 65.655 62.64 64.615 62.24C63.575 61.84 62.775 61.36 62.215 60.8C61.495 60.08 60.975 59.28 60.655 58.4C60.255 57.36 60.055 56.4 60.055 55.52Z" fill="#ffffff"/>
    <path d="M105.168 9.8C110.288 3.48001 116.008 0.320007 122.328 0.320007C126.488 0.320007 129.847 1.48001 132.407 3.80001C134.887 6.04001 136.728 9.12001 137.928 13.04C139.688 8.72001 142.328 5.52 145.847 3.44C149.528 1.36001 153.048 0.320007 156.408 0.320007C159.928 0.320007 163.047 0.840005 165.767 1.88C168.327 2.84 170.488 4.32 172.248 6.32001C175.768 10.32 177.528 16 177.528 23.36V53.36C181.528 54.08 183.848 54.56 184.487 54.8C185.688 55.04 186.288 55.76 186.288 56.96V62.24H166.968V23.48C166.968 18.6 165.928 15 163.847 12.68C161.608 10.2 158.568 8.96 154.728 8.96C151.048 8.96 148.008 10.16 145.608 12.56C142.968 15.2 141.648 18.8 141.648 23.36V53.36C141.968 53.44 142.648 53.6 143.688 53.84C144.728 54.08 146.327 54.4 148.487 54.8C149.687 55.04 150.288 55.76 150.288 56.96V62.12H130.968V23.36C130.968 13.76 127.128 8.96 119.448 8.96C114.488 8.96 109.968 11.6 105.888 16.88V53.36L109.128 53.96L112.728 54.68C113.928 54.92 114.528 55.68 114.528 56.96V62H86.5675V56.96C86.5675 55.68 87.1275 54.92 88.2475 54.68L95.2075 53.36V10.04C91.2075 9.32 88.8875 8.84 88.2475 8.6C87.1275 8.36 86.5675 7.60001 86.5675 6.32001V1.28H101.448C102.888 1.28 103.848 2 104.328 3.44L105.168 9.68001V9.8Z" fill="#ffffff"/>
    <path d="M196.925 55.52C196.925 54.64 197.125 53.68 197.525 52.64C197.845 51.76 198.365 50.96 199.085 50.24C199.725 49.6 200.525 49.04 201.485 48.56C202.125 48.24 203.085 48.08 204.365 48.08C205.645 48.08 206.605 48.24 207.245 48.56C208.045 48.96 208.805 49.52 209.525 50.24C210.245 50.96 210.765 51.76 211.085 52.64C211.405 53.52 211.565 54.48 211.565 55.52C211.565 56.56 211.405 57.52 211.085 58.4C210.765 59.28 210.245 60.08 209.525 60.8C208.885 61.44 208.125 61.92 207.245 62.24C206.205 62.64 205.245 62.84 204.365 62.84C203.485 62.84 202.525 62.64 201.485 62.24C200.445 61.84 199.645 61.36 199.085 60.8C198.365 60.08 197.845 59.28 197.525 58.4C197.125 57.36 196.925 56.4 196.925 55.52Z" fill="#ffffff"/>
    <path d="M247.078 0.320007C251.238 0.320007 256.518 1.40001 262.918 3.56V19.16H258.238C257.118 19.16 256.438 18.6 256.198 17.48L255.478 9.56001C251.718 8.68001 248.598 8.24001 246.118 8.24001H245.998C242.718 8.24001 239.958 9.12001 237.718 10.88C235.558 12.56 234.478 14.4 234.478 16.4C234.478 18.48 234.958 20 235.918 20.96C237.518 22.8 239.838 24.2 242.878 25.16L246.478 26.24C247.118 26.4 248.398 26.8 250.318 27.44L256.078 29.6C257.678 30.16 259.358 31.2 261.118 32.72C264.398 35.28 266.038 38.8 266.038 43.28C266.038 49.12 264.078 53.76 260.158 57.2C255.918 60.96 250.558 62.84 244.078 62.84C237.438 62.84 230.878 61.76 224.398 59.6V43.76H228.718C229.678 43.76 230.278 44.24 230.518 45.2L231.238 52.88C234.438 54.48 238.558 55.28 243.598 55.28C247.438 55.28 250.558 54.28 252.958 52.28C255.038 50.44 256.078 48.4 256.078 46.16C256.078 43.84 255.598 42.16 254.638 41.12C253.518 39.84 252.318 38.88 251.038 38.24C249.278 37.36 247.598 36.72 245.998 36.32C240.078 34.4 236.358 33.12 234.838 32.48C232.918 31.6 231.118 30.48 229.438 29.12C226.078 26.32 224.398 22.56 224.398 17.84C224.398 13.04 226.318 8.96 230.158 5.6C234.158 2.08001 239.798 0.320007 247.078 0.320007Z" fill="#ffffff"/>
    <path d="M276.257 55.52C276.257 54.64 276.457 53.68 276.857 52.64C277.177 51.76 277.697 50.96 278.417 50.24C279.057 49.6 279.857 49.04 280.817 48.56C281.457 48.24 282.417 48.08 283.697 48.08C284.977 48.08 285.937 48.24 286.577 48.56C287.377 48.96 288.137 49.52 288.857 50.24C289.577 50.96 290.097 51.76 290.417 52.64C290.737 53.52 290.897 54.48 290.897 55.52C290.897 56.56 290.737 57.52 290.417 58.4C290.097 59.28 289.577 60.08 288.857 60.8C288.217 61.44 287.457 61.92 286.577 62.24C285.537 62.64 284.577 62.84 283.697 62.84C282.817 62.84 281.857 62.64 280.817 62.24C279.777 61.84 278.977 61.36 278.417 60.8C277.697 60.08 277.177 59.28 276.857 58.4C276.457 57.36 276.257 56.4 276.257 55.52Z" fill="#ffffff"/>
</svg>
